<?xml version="1.0" encoding="UTF-8"?>
<!-- Created with Inkscape (http://www.inkscape.org/) -->
<svg width="2293" height="1443" version="1.1" xmlns="http://www.w3.org/2000/svg" xmlns:cc="http://creativecommons.org/ns#" xmlns:dc="http://purl.org/dc/elements/1.1/" xmlns:rdf="http://www.w3.org/1999/02/22-rdf-syntax-ns#">
 <metadata>
  <rdf:RDF>
   <cc:Work rdf:about="">
    <dc:format>image/svg+xml</dc:format>
    <dc:type rdf:resource="http://purl.org/dc/dcmitype/StillImage"/>
   </cc:Work>
  </rdf:RDF>
 </metadata>
 <defs>
  <clipPath id="clipPath3113-8">
   <path d="m0 841.89h595.28v-841.89h-595.28v841.89z"/>
  </clipPath>
  <clipPath id="clipPath3121-9">
   <path d="m432.33 356.71h152.66v-68.08h-152.66v68.08z"/>
  </clipPath>
 </defs>
 <path d="m343.49 1319.8c-21.214-5.1347-33.703-21.625-36.149-47.73l-0.72001-7.6835h10.117 10.117v4.3163c0 11.035 4.006 22.577 9.6568 27.824 9.1614 8.5064 28.875 11.264 44.343 6.2024 8.0538-2.6353 15.283-9.9507 17.527-17.737 2.188-7.5906 1.6952-22.502-0.90668-27.438-4.7852-9.0778-17.072-16.564-39.62-24.14-24.088-8.0933-37.872-17.675-43.525-30.255-2.3123-5.1455-2.8993-8.0715-3.2672-16.284-0.76829-17.153 3.2743-28.926 13.136-38.252 9.9083-9.3708 21.465-13.42 38.657-13.544 16.723-0.1206 27.713 3.5473 37.552 12.532 8.7643 8.0038 15.448 24.329 15.448 37.733v4.0422h-9.8557-9.8557l-0.56647-7.49c-1.3804-18.252-12.229-28.98-30.577-30.238-9.1864-0.6296-17.276 1.3452-23.747 5.797-5.2736 3.6283-7.9012 7.826-9.9812 15.945-2.8969 11.308-0.15432 21.342 7.8371 28.673 6.0987 5.5948 11.796 8.3438 30.501 14.716 8.659 2.9501 18.299 6.5019 21.421 7.893 12.299 5.4789 21.405 14.863 25.932 26.726 2.5777 6.7542 3.5804 22.022 1.9992 30.44-3.5569 18.938-16.775 32.464-36.705 37.562-9.3705 2.3965-29.636 2.5999-38.77 0.3889zm208.52 0.1234c-24.9-6.0242-42.178-28.739-48.33-63.537-2.0172-11.41-1.7074-47.106 0.50781-58.5 6.6492-34.2 22.632-54.594 47.942-61.172 8.5212-2.2146 27.104-2.1487 35.725 0.1268 24.306 6.4161 40.24 25.755 42.658 51.775l0.62921 6.77h-9.9392-9.9392l-0.24978-3.7089c-0.36929-5.4835-4.8076-17.92-8.1064-22.715-4.139-6.0159-10.459-11.406-16.933-14.441-4.9929-2.3411-6.7917-2.6284-16.12-2.5744-14.314 0.083-20.088 2.3367-29.071 11.348-5.1568 5.1726-7.2417 8.2113-9.6852 14.116-11.477 27.735-10.784 80.004 1.3867 104.66 9.3514 18.948 28.41 26.851 52.521 21.779 15.511-3.2627 23.341-11.469 27.958-29.299 1.0922-4.218 2.2572-12.282 2.5891-17.919l0.60334-10.25h-30.651-30.651v-8.5113-8.5114l80.5 0.5227-0.0698 19.5c-0.0788 22.023-1.1752 28.313-7.1216 40.858-6.6 13.924-20.691 24.764-37.918 29.17-9.1036 2.3283-29.588 2.601-38.235 0.5089zm378.57-0.1036c-14.086-3.4128-24.051-11.23-30.173-23.669-3.7061-7.531-6.5466-19.5-6.5506-27.602l-2e-3 -4.662 19.505 1 0.61752 7.5931c0.93724 11.524 3.3033 17.458 9.3874 23.542 3.8689 3.8689 6.5806 5.6114 10.597 6.8094 16.69 4.9782 36.614 1.8405 45.094-7.1015 4.2675-4.4999 6.9511-11.736 7.5402-20.331 0.7799-11.378-0.8516-16.883-6.9976-23.607-5.8841-6.4382-18.16-12.849-36.141-18.874-26.08-8.7391-39.598-19.168-44.208-34.104-2.3013-7.4562-2.0513-24.312 0.47963-32.339 6.3217-20.049 24.186-31.216 50.13-31.335 31.473-0.1449 49.374 16.023 52.587 47.498l0.6892 6.75h-9.993-9.9931l-0.5918-6.75c-0.8115-9.2559-3.115-15.306-7.8952-20.736-6.8209-7.7491-16.666-11.2-29.194-10.232-17.05 1.3164-27.054 10.941-28.366 27.29-1.0523 13.109 4.9038 22.939 17.863 29.481 3.4684 1.7509 13.39 5.5893 22.049 8.5298 20.5 6.962 27.944 10.669 35.397 17.625 10.434 9.7398 15.271 23.633 14.053 40.362-1.6955 23.288-14.559 38.664-37.189 44.452-9.336 2.3877-29.645 2.6036-38.694 0.4114zm540.28-0.016c-10.082-2.6598-17.905-7.2591-26.065-15.324-6.5123-6.4361-8.453-9.1934-12.735-18.093-8.8244-18.341-11.745-35.478-10.905-63.987 1.0015-33.972 7.8063-54.137 23.661-70.116 12.374-12.471 24.86-17.291 44.544-17.197 26.423 0.1265 44.935 11.363 56.501 34.296 8.3192 16.495 11.392 32.408 11.392 59.004 0 26.364-3.1179 42.696-11.169 58.504-8.9097 17.494-22.725 29.044-39.463 32.99-8.1151 1.9133-28.382 1.8696-35.76-0.077zm27.114-15.431c25.849-4.866 38.25-29.519 38.223-75.986-0.024-40.31-8.7452-63.09-27.861-72.772-9.6297-4.8773-24.662-5.3607-35.977-1.157-8.8731 3.2968-18.047 12.891-22.458 23.485-5.1154 12.288-7.1092 23.486-7.7435 43.49-1.1065 34.9 4.193 57.577 16.638 71.193 9.5453 10.444 23.644 14.672 39.178 11.747zm113.89 14.683c-13.575-4.025-22.539-11.868-28.536-24.967-2.7976-6.1107-5.464-18.47-5.464-25.326v-4.4482l19.5 0.5724 0.667 8c0.9613 11.529 3.8328 18.415 9.9862 23.948 5.8346 5.2459 11.678 7.3345 23.031 8.2314 13.024 1.029 25.684-2.6631 32.012-9.336 6.4357-6.7862 9.7478-23.328 6.7877-33.9-3.062-10.936-14.94-19.238-39.984-27.944-33.069-11.497-45.668-22.754-47.918-42.816-2.6612-23.73 5.7195-41.014 24.478-50.48 7.3189-3.6937 16.275-5.4487 27.94-5.4752 17.164-0.039 28.632 4.1333 38.146 13.878 8.0458 8.2411 12.351 18.668 13.892 33.645l0.6947 6.75h-9.9715-9.9714l-0.5821-6.75c-1.1672-13.536-7.6466-23.768-17.929-28.311-7.3867-3.2638-23.98-3.3921-30.882-0.2388-11.365 5.192-16.347 13.499-16.372 27.3-0.032 17.986 7.3434 24.618 39.536 35.551 20.695 7.028 27.826 10.524 34.979 17.147 10.724 9.9288 15.798 24.156 14.551 40.802-1.0653 14.218-4.7751 22.885-13.466 31.459-11.101 10.951-23.352 15.074-44.535 14.987-10.502-0.043-14.573-0.4932-20.59-2.2773zm-475.53-0.7171c-0.1846-0.3014 7.7261-30.001 17.579-66s20.955-76.59 24.67-90.202l6.7557-24.75 26.028 0.0012 24.885 89.249c13.687 49.087 25.098 89.812 25.357 90.499 0.3568 0.9455-1.8493 1.25-9.0578 1.25h-9.5294l-1.0249-3.25c-0.5637-1.7875-3.7737-13.375-7.1335-25.75-3.3597-12.375-6.3388-23.288-6.62-24.25-0.4724-1.6162-2.7816-1.7493-30.194-1.7404l-29.683 0.01-5.4016 20.24c-2.9708 11.132-6.2763 23.471-7.3455 27.42l-1.9439 7.1793-8.5031 0.3207c-4.6767 0.1765-8.6541 0.074-8.8387-0.2272zm83.028-84.202c-1.7845-6.7375-7.2043-27.224-12.044-45.526-4.8396-18.302-9.1072-32.927-9.4835-32.5-0.3762 0.4268-2.9742 9.5511-5.7732 20.276s-8.0379 30.632-11.642 44.238-6.5529 24.968-6.5529 25.25 10.967 0.5124 24.37 0.5124h24.37l-3.2447-12.25zm-1190.5-6.3004v-90.665l33.75 0.4909c38.128 0.5546 41.211 1.0014 54.451 7.8897 18.329 9.536 30.282 27.481 35.909 53.912 3.1976 15.019 3.1948 42.817-6e-3 57.922-3.8231 18.043-11.282 33.177-21.278 43.173-5.42 5.42-16.036 12.07-23.827 14.926-6.3307 2.3204-7.4442 2.3907-42.75 2.6989l-36.25 0.3163v-90.664zm65.114 73.545c13.128-2.4501 25.447-12.218 31.807-25.222 11.663-23.845 11.708-70.736 0.0918-95.56-3.5038-7.488-12.103-16.856-18.838-20.521-8.8471-4.8151-14.678-5.6911-37.884-5.6911h-21.29v73.333c0 40.333 0.3 73.633 0.66667 74 1.059 1.059 39.492 0.7727 45.447-0.3386zm93.886-73.495v-90.5h45.5 45.5v8.5 8.5h-36.015-36.015l0.26467 30.25 0.26466 30.25 71.5 0.5253v7.9873 7.9874l-34.5 0.125c-18.975 0.069-35.062 0.1813-35.75 0.25-0.97381 0.097-1.25 7.8583-1.25 35.125v35l71.5 0.5253v7.9873 7.9874h-45.5-45.5v-90.5zm263 0v-90.5h9.5 9.5v90.5 90.5h-9.5-9.5v-90.5zm220-0.034v-90.534l21.332 0.5677 13.084 23.606c7.1963 12.983 24.109 43.613 37.584 68.067l24.5 44.462 0.51378-136.63h9.9931 9.9931v90.5 90.5h-9.4511-9.4511l-3.4318-6.25c-1.8875-3.4375-13.077-24.025-24.866-45.75-11.789-21.725-27.704-51.041-35.367-65.147l-13.933-25.647-0.25662 71.397-0.25662 71.397h-9.9934-9.9934v-90.534zm352 83.527v-7.0071l37.5-74.333c20.625-40.883 37.5-74.63 37.5-74.993 0-0.3627-16.425-0.6595-36.5-0.6595h-36.5v-8.5-8.5h48.5 48.5v8.1079 8.1079l-7.3747 14.142c-11.004 21.103-67.625 133.32-67.625 134.03 0 0.3367 17.325 0.6122 38.5 0.6122h38.5v8 8h-50.5-50.5v-7.0071zm263-83.493v-90.5h9.4903 9.4903l0.5194 95.5 67-95.426 11.357-0.037c9.7025-0.032 11.273 0.182 10.78 1.4657-0.3171 0.8264-10.878 15.358-23.468 32.292s-23.45 31.683-24.133 32.776c-1.0972 1.7569 1.792 7.713 24.962 51.458 14.411 27.209 27.732 52.27 29.602 55.69 1.8698 3.4201 3.3997 6.4576 3.3997 6.75 0 0.2925-5.1372 0.5318-11.416 0.5318h-11.416l-7.4516-14.25c-4.0984-7.8375-13.884-26.625-21.747-41.75s-15.728-30.106-17.48-33.292l-3.1845-5.7922-27.306 38.468v28.308 28.308h-9.5-9.5v-90.5zm421 83.497v-7.0028l37.5-74.342c20.625-40.888 37.5-74.637 37.5-74.997s-16.425-0.6553-36.5-0.6553h-36.5v-8.5-8.5h48.5 48.5v8.1079 8.1079l-7.3735 14.142c-10.897 20.9-67.626 133.34-67.626 134.04 0 0.3302 17.325 0.6003 38.5 0.6003h38.5v8 8h-50.5-50.5v-7.0029zm159-74.497v-81.5h-21.5-21.5v-9-9h53 53v9 9h-21.5-21.5v81.5 81.5h-10-10v-81.5zm72.628 76.25c0.8133-2.8875 11.934-43.5 24.712-90.25l23.233-85 13.213-0.279c7.2673-0.1535 13.213-0.022 13.213 0.2934 0 0.3148 2.7317 10.34 6.0705 22.279 22.99 82.206 43.93 157.41 43.93 157.78 0 0.2367-4.2139 0.4303-9.3642 0.4303h-9.3642l-3.6782-13.25c-2.0231-7.2875-5.3949-19.55-7.4929-27.25l-3.8147-14h-29.824-29.824l-6.1818 23c-3.4 12.65-6.7107 24.912-7.357 27.25l-1.1752 4.25h-8.8867-8.8867l1.4786-5.25zm85.115-68c-0.259-0.6875-5.7559-21.275-12.216-45.75-6.4595-24.475-11.85-44.617-11.98-44.76-0.1293-0.1431-2.8176 9.5319-5.974 21.5-8.7884 33.322-17.615 66.563-18.191 68.51-0.4835 1.6334 1.1263 1.75 24.156 1.75 19.324 0 24.572-0.2711 24.204-1.25zm63.257-17.25v-90.5h9.4942 9.4942l0.5116 164.5 68.5 0.5263v7.9868 7.9869h-44-44v-90.5zm138 54.613v-35.887l-25.5-53.677c-14.025-29.523-25.5-54.098-25.5-54.613 0-0.5219 4.6725-0.9357 10.565-0.9357h10.565l4.746 10.25c2.6102 5.6375 11.468 25.424 19.685 43.97 8.2164 18.546 15.164 33.718 15.439 33.716 0.275 0 9.2874-19.676 20.028-43.72l19.528-43.716 10.722-0.2838c5.8974-0.1561 10.722 0.1153 10.722 0.6032s-11.475 25.081-25.5 54.651l-25.5 53.764v35.883 35.883h-10-10v-35.887zm-239.83-155.05c0.1833-0.5142 6.1833-8.3682 13.333-17.453l13-16.519 9.8423-0.047 9.8423-0.046-33.685 34.924-6.3333 0.038c-3.5158 0.021-6.1851-0.3777-6-0.8967zm-1915-89.297c12.144-22.092 20.412-46.676 24.474-72.768 2.4908-16 2.5274-49.118 0.0718-65-6.076-39.298-20.753-74.991-43.058-104.71-8.555-11.399-23.941-27.559-34.346-36.073l-6.2318-5.0991 11.232-5.4629c48.553-23.615 90.105-60.386 120-106.19 26.485-40.579 42.705-87.031 47.772-136.81 1.7406-17.1 0.73468-54.362-1.9343-71.656-4.7328-30.666-15.542-65.017-28.691-91.174-7.9344-15.784-22.346-38.445-32.631-51.308-2.6323-3.292-4.786-6.2684-4.786-6.6141 0-0.34571 1.9254-0.89246 4.2788-1.215 6.8692-0.94153 26.579-7.2356 38.195-12.197 63.747-27.228 112.59-84.652 129.99-152.84 4.473-17.522 6.5322-34.454 6.5322-53.711v-15.885l112.25 55.97c61.738 30.783 112.76 56.389 113.38 56.901 1.2872 1.0635 4.6088 18.135 6.8259 35.082 2.672 20.424 3.6131 34.912 4.2223 65 1.0952 54.093-3.5896 108.75-12.557 146.5-12.92 54.391-63.679 269.68-77.687 329.5-23.555 100.59-22.97 98.234-29.18 117.5-19.624 60.882-56.735 134.21-90.822 179.46l-7.5594 10.035h-126.86-126.86l3.9751-7.2317zm343.37 4.95c8.6949-6.4339 21.419-17.936 33.021-29.85 49.523-50.853 89.97-123.42 103.32-185.37 1.6596-7.7 21.779-93.425 44.71-190.5s42.753-181 44.048-186.5c8.3654-35.52 9.7901-83.818 3.8643-131-3.2509-25.884-10.182-56.678-17.67-78.5-4.1478-12.089-11.949-30.872-14.469-34.837-0.81675-1.2852-1.2769-2.5449-1.0225-2.7992 0.74463-0.74463 183.82 91.086 191.87 96.244 35.84 22.954 65.095 56.365 84.839 96.892 8.694 17.846 13.195 30.088 17.993 48.935 5.6896 22.352 7.3473 38.412 6.6643 64.565-0.63538 24.329-1.0087 26.664-11.032 69-3.5811 15.125-20.276 86-37.099 157.5s-31.504 133.37-32.623 137.48c-9.7905 35.98-32.676 73.172-63.095 102.54-32.563 31.436-73.005 53.695-114.44 62.989-24.274 5.4443-24.56 5.4556-137.38 5.4425l-104.5-0.012 2.9979-2.2183zm430.5 1.2082c23.439-3.0606 45.64-11.471 66.053-25.022 12.636-8.3883 32.438-28.178 40.798-40.772 15.84-23.862 24.649-50.86 25.82-79.132 0.5229-12.62-1.1406-29.444-20.171-204-1.3491-12.375-3.1214-28.8-3.9384-36.5-0.81701-7.7-3.3636-31.1-5.6591-52-2.4931-22.699-4.1503-42.429-4.1157-49 0.16056-30.468 12.489-59.616 34.544-81.671 13.774-13.775 33.865-25.29 53.331-30.567 9.0835-2.4626 11.37-2.6702 29.837-2.709 21.767-0.0457 28.03 1.0344 43.5 7.5017 7.7357 3.2339 206 101.72 206 102.33 0 0.23128-2.1556-0.39855-4.7902-1.3996-8.4357-3.2053-19.696-4.9882-31.418-4.9746-26.028 0.0303-48.335 8.87-66.599 26.391-17.947 17.217-27.066 35.312-30.278 60.082-0.6409 4.9422-0.9099 11.917-0.5976 15.5 0.5925 6.7981 6.139 58.254 19.835 184.01 8.5308 78.33 9.4809 93.155 6.9223 108-1.8658 10.825-6.5842 25.124-11.762 35.644-5.2529 10.673-17.956 28.038-25.525 34.89-16.28 14.74-35.071 25.171-55.288 30.69l-12 3.2761-130.5 0.1377c-75.247 0.079-127.75-0.2218-124-0.7112zm482.5-0.5823c-25.969-5.5379-48.676-23.812-59.642-47.998-4.9281-10.869-7.1822-22.22-7.1181-35.846 0.099-21.01 3.9824-31.241 23.156-61 14.686-22.795 19.472-30.249 35.634-55.5 14.663-22.909 24.8-38.708 55.499-86.5 10.599-16.5 20.993-33.342 23.098-37.427 18.488-35.873 15.165-80.222-8.4911-113.32-5.6226-7.8672-19.348-21.263-26.885-26.238-3.1625-2.0878-5.75-3.9595-5.75-4.1594 0-0.19992 51.638 25.482 114.75 57.071 123.16 61.643 121.68 60.817 132.25 73.851 6.4566 7.9652 13.285 21.172 16.178 31.293 1.8571 6.4949 2.2661 10.377 2.2578 21.432-0.018 24.13-2.0504 28.936-31.922 75.5-74.815 116.62-73.729 114.9-76.353 120.86-1.1773 2.6717-2.8798 8.5059-3.7833 12.965-4.7966 23.672 4.6959 48.789 23.894 63.22 7.9972 6.0116 11.803 7.9031 21.923 10.895l8.3087 2.4564-115-0.028c-98.106-0.024-116.03-0.2476-122-1.5211z"/>
 <g transform="matrix(4.0813 0 0 -4.0813 -112.6 2218.7)">
  <g clip-path="url(#clipPath3113-8)">
   <g clip-path="url(#clipPath3121-9)">
    <g transform="translate(448.45 356.71)">
     <path d="m0 0 136.54-68.08h-152.57c-1.011 19.35 6.5 51.21 16.029 68.08" fill="#00aeef"/>
    </g>
   </g>
  </g>
 </g>
</svg>
